<svg width="1080" height="1080" viewBox="0 0 1080 1080" fill="none" xmlns="http://www.w3.org/2000/svg">
<g clip-path="url(#clip0_1_27)">
<path d="M-107.051 1066.59C-107.051 1066.59 42.9006 744.035 201.476 447.531C452.958 -22.6884 967.045 -19.0119 967.045 -19.0119" stroke="#328E6E" stroke-width="20"/>
<path d="M190.349 1183C190.349 1183 313.328 918.927 443.342 676.164C649.529 291.171 1070.21 293.756 1070.21 293.756" stroke="#328E6E" stroke-width="20"/>
<g filter="url(#filter0_d_1_27)">
<path d="M1079.66 123.841L1020.03 68.0241L963.575 126.974L1023.2 182.791L1079.66 123.841ZM329.522 561.515L320.722 556.703L329.522 561.515ZM37.2833 1118.82C46.327 1123.17 46.3275 1123.17 46.3284 1123.17C46.3295 1123.16 46.331 1123.16 46.3331 1123.16C46.3373 1123.15 46.3437 1123.14 46.3522 1123.12C46.3693 1123.08 46.395 1123.03 46.4293 1122.96C46.4979 1122.82 46.6008 1122.61 46.7375 1122.34C47.0109 1121.78 47.4195 1120.95 47.9591 1119.86C49.0384 1117.68 50.6418 1114.44 52.7363 1110.21C56.9252 1101.77 63.078 1089.41 70.9294 1073.74C86.6325 1042.39 109.129 997.814 136.296 944.887C190.636 839.022 263.636 699.811 338.322 566.328L329.522 561.515L320.722 556.703C245.875 690.473 172.755 829.914 118.359 935.888C91.1584 988.881 68.6326 1033.52 52.9055 1064.91C45.0419 1080.61 38.8776 1092.99 34.6782 1101.46C32.5785 1105.69 30.97 1108.94 29.8859 1111.13C29.3438 1112.23 28.9328 1113.06 28.657 1113.62C28.5192 1113.9 28.4151 1114.12 28.3453 1114.26C28.3105 1114.33 28.2842 1114.38 28.2665 1114.42C28.2577 1114.43 28.2511 1114.45 28.2466 1114.46C28.2443 1114.46 28.2426 1114.47 28.2415 1114.47C28.2403 1114.47 28.2396 1114.47 37.2833 1118.82ZM329.522 561.515L338.322 566.328C455.497 356.908 626.409 249.196 768.195 193.771C839.112 166.05 902.695 151.433 948.506 143.751C971.406 139.911 989.846 137.807 1002.52 136.665C1008.85 136.093 1013.74 135.763 1017.03 135.575C1018.67 135.482 1019.91 135.424 1020.73 135.39C1021.14 135.373 1021.44 135.362 1021.63 135.355C1021.73 135.352 1021.8 135.349 1021.84 135.348C1021.87 135.348 1021.88 135.347 1021.89 135.347C1021.89 135.347 1021.89 135.347 1021.89 135.347C1021.89 135.347 1021.89 135.347 1021.62 125.408C1021.34 115.469 1021.34 115.469 1021.33 115.469C1021.32 115.469 1021.31 115.469 1021.3 115.47C1021.28 115.47 1021.26 115.471 1021.22 115.472C1021.15 115.474 1021.06 115.477 1020.94 115.481C1020.69 115.49 1020.34 115.503 1019.88 115.522C1018.96 115.56 1017.62 115.623 1015.87 115.723C1012.37 115.922 1007.26 116.269 1000.69 116.861C987.556 118.046 968.601 120.212 945.143 124.145C898.241 132.01 833.264 146.952 760.8 175.278C615.825 231.949 440.689 342.291 320.722 556.703L329.522 561.515Z" fill="#E3D3BC"/>
<path d="M1079.66 123.841L1020.03 68.0241L963.575 126.974L1023.2 182.791L1079.66 123.841ZM329.522 561.515L320.722 556.703L329.522 561.515ZM37.2833 1118.82C46.327 1123.17 46.3275 1123.17 46.3284 1123.17C46.3295 1123.16 46.331 1123.16 46.3331 1123.16C46.3373 1123.15 46.3437 1123.14 46.3522 1123.12C46.3693 1123.08 46.395 1123.03 46.4293 1122.96C46.4979 1122.82 46.6008 1122.61 46.7375 1122.34C47.0109 1121.78 47.4195 1120.95 47.9591 1119.86C49.0384 1117.68 50.6418 1114.44 52.7363 1110.21C56.9252 1101.77 63.078 1089.41 70.9294 1073.74C86.6325 1042.39 109.129 997.814 136.296 944.887C190.636 839.022 263.636 699.811 338.322 566.328L329.522 561.515L320.722 556.703C245.875 690.473 172.755 829.914 118.359 935.888C91.1584 988.881 68.6326 1033.52 52.9055 1064.91C45.0419 1080.61 38.8776 1092.99 34.6782 1101.46C32.5785 1105.69 30.97 1108.94 29.8859 1111.13C29.3438 1112.23 28.9328 1113.06 28.657 1113.62C28.5192 1113.9 28.4151 1114.12 28.3453 1114.26C28.3105 1114.33 28.2842 1114.38 28.2665 1114.42C28.2577 1114.43 28.2511 1114.45 28.2466 1114.46C28.2443 1114.46 28.2426 1114.47 28.2415 1114.47C28.2403 1114.47 28.2396 1114.47 37.2833 1118.82ZM329.522 561.515L338.322 566.328C455.497 356.908 626.409 249.196 768.195 193.771C839.112 166.05 902.695 151.433 948.506 143.751C971.406 139.911 989.846 137.807 1002.52 136.665C1008.85 136.093 1013.74 135.763 1017.03 135.575C1018.67 135.482 1019.91 135.424 1020.73 135.39C1021.14 135.373 1021.44 135.362 1021.63 135.355C1021.73 135.352 1021.8 135.349 1021.84 135.348C1021.87 135.348 1021.88 135.347 1021.89 135.347C1021.89 135.347 1021.89 135.347 1021.89 135.347C1021.89 135.347 1021.89 135.347 1021.62 125.408C1021.34 115.469 1021.34 115.469 1021.33 115.469C1021.32 115.469 1021.31 115.469 1021.3 115.47C1021.28 115.47 1021.26 115.471 1021.22 115.472C1021.15 115.474 1021.06 115.477 1020.94 115.481C1020.69 115.49 1020.34 115.503 1019.88 115.522C1018.96 115.56 1017.62 115.623 1015.87 115.723C1012.37 115.922 1007.26 116.269 1000.69 116.861C987.556 118.046 968.601 120.212 945.143 124.145C898.241 132.01 833.264 146.952 760.8 175.278C615.825 231.949 440.689 342.291 320.722 556.703L329.522 561.515Z" fill="black" fill-opacity="0.2"/>
</g>
</g>
<defs>
<filter id="filter0_d_1_27" x="24.2415" y="68.0241" width="1059.42" height="1063.14" filterUnits="userSpaceOnUse" color-interpolation-filters="sRGB">
<feFlood flood-opacity="0" result="BackgroundImageFix"/>
<feColorMatrix in="SourceAlpha" type="matrix" values="0 0 0 0 0 0 0 0 0 0 0 0 0 0 0 0 0 0 127 0" result="hardAlpha"/>
<feOffset dy="4"/>
<feGaussianBlur stdDeviation="2"/>
<feComposite in2="hardAlpha" operator="out"/>
<feColorMatrix type="matrix" values="0 0 0 0 0 0 0 0 0 0 0 0 0 0 0 0 0 0 0.25 0"/>
<feBlend mode="normal" in2="BackgroundImageFix" result="effect1_dropShadow_1_27"/>
<feBlend mode="normal" in="SourceGraphic" in2="effect1_dropShadow_1_27" result="shape"/>
</filter>
<clipPath id="clip0_1_27">
<rect width="1080" height="1080" fill="white"/>
</clipPath>
</defs>
</svg>
